<svg width="28" height="28" viewBox="0 0 28 28" fill="none" xmlns="http://www.w3.org/2000/svg">
<g opacity="0.5">
<path d="M19.8333 3.49996H24.5C24.8094 3.49996 25.1061 3.62288 25.3249 3.84167C25.5437 4.06046 25.6666 4.35721 25.6666 4.66663V23.3333C25.6666 23.6427 25.5437 23.9395 25.3249 24.1583C25.1061 24.377 24.8094 24.5 24.5 24.5H3.49998C3.19056 24.5 2.89381 24.377 2.67502 24.1583C2.45623 23.9395 2.33331 23.6427 2.33331 23.3333V4.66663C2.33331 4.35721 2.45623 4.06046 2.67502 3.84167C2.89381 3.62288 3.19056 3.49996 3.49998 3.49996H8.16665V1.16663H10.5V3.49996H17.5V1.16663H19.8333V3.49996ZM17.5 5.83329H10.5V8.16663H8.16665V5.83329H4.66665V10.5H23.3333V5.83329H19.8333V8.16663H17.5V5.83329ZM23.3333 12.8333H4.66665V22.1666H23.3333V12.8333Z" fill="#E7E7F2"/>
</g>
</svg>
