<svg width="28" height="28" viewBox="0 0 28 28" fill="none" xmlns="http://www.w3.org/2000/svg">
<g opacity="0.5">
<path d="M24.5 23.3333C24.5 23.6427 24.3771 23.9395 24.1583 24.1582C23.9395 24.377 23.6428 24.5 23.3333 24.5H4.66667C4.35725 24.5 4.0605 24.377 3.84171 24.1582C3.62292 23.9395 3.5 23.6427 3.5 23.3333V11.0716C3.49988 10.8938 3.54039 10.7184 3.61844 10.5586C3.69648 10.3989 3.81001 10.2591 3.95033 10.15L13.2837 2.89095C13.4885 2.73164 13.7405 2.64514 14 2.64514C14.2595 2.64514 14.5115 2.73164 14.7163 2.89095L24.0497 10.15C24.19 10.2591 24.3035 10.3989 24.3816 10.5586C24.4596 10.7184 24.5001 10.8938 24.5 11.0716V23.3333ZM22.1667 22.1666V11.641L14 5.28962L5.83333 11.641V22.1666H22.1667Z" fill="#E7E7F2"/>
</g>
</svg>
