<svg width="28" height="28" viewBox="0 0 28 28" fill="none" xmlns="http://www.w3.org/2000/svg">
<g opacity="0.5">
<path d="M23.3333 25.6666H21V23.3333C21 22.405 20.6312 21.5148 19.9749 20.8584C19.3185 20.202 18.4282 19.8333 17.5 19.8333H10.5C9.57173 19.8333 8.68149 20.202 8.02512 20.8584C7.36874 21.5148 6.99999 22.405 6.99999 23.3333V25.6666H4.66666V23.3333C4.66666 21.7862 5.28124 20.3025 6.3752 19.2085C7.46916 18.1145 8.95289 17.5 10.5 17.5H17.5C19.0471 17.5 20.5308 18.1145 21.6248 19.2085C22.7187 20.3025 23.3333 21.7862 23.3333 23.3333V25.6666ZM14 15.1666C13.0807 15.1666 12.1705 14.9856 11.3212 14.6338C10.4719 14.282 9.70025 13.7664 9.05024 13.1164C8.40023 12.4664 7.88462 11.6947 7.53283 10.8454C7.18105 9.99613 6.99999 9.08588 6.99999 8.16663C6.99999 7.24737 7.18105 6.33712 7.53283 5.48784C7.88462 4.63856 8.40023 3.86689 9.05024 3.21688C9.70025 2.56687 10.4719 2.05125 11.3212 1.69947C12.1705 1.34769 13.0807 1.16663 14 1.16663C15.8565 1.16663 17.637 1.90412 18.9497 3.21688C20.2625 4.52963 21 6.31011 21 8.16663C21 10.0231 20.2625 11.8036 18.9497 13.1164C17.637 14.4291 15.8565 15.1666 14 15.1666ZM14 12.8333C15.2377 12.8333 16.4247 12.3416 17.2998 11.4665C18.175 10.5913 18.6667 9.4043 18.6667 8.16663C18.6667 6.92895 18.175 5.74196 17.2998 4.86679C16.4247 3.99162 15.2377 3.49996 14 3.49996C12.7623 3.49996 11.5753 3.99162 10.7002 4.86679C9.82499 5.74196 9.33332 6.92895 9.33332 8.16663C9.33332 9.4043 9.82499 10.5913 10.7002 11.4665C11.5753 12.3416 12.7623 12.8333 14 12.8333Z" fill="#E7E7F2"/>
</g>
</svg>
